<mxfile host="app.diagrams.net" modified="2021-08-29T10:19:01.105Z" agent="5.0 (Macintosh; Intel Mac OS X 10_15_7) AppleWebKit/605.1.15 (KHTML, like Gecko) Version/14.1.2 Safari/605.1.15" etag="SFn0CpyjplO5LsveEvHc" version="15.0.3" type="github">
  <diagram id="C5RBs43oDa-KdzZeNtuy" name="Page-1">
    <mxGraphModel dx="945" dy="734" grid="1" gridSize="10" guides="1" tooltips="1" connect="1" arrows="1" fold="1" page="1" pageScale="1" pageWidth="827" pageHeight="1169" math="0" shadow="0">
      <root>
        <mxCell id="WIyWlLk6GJQsqaUBKTNV-0" />
        <mxCell id="WIyWlLk6GJQsqaUBKTNV-1" parent="WIyWlLk6GJQsqaUBKTNV-0" />
        <mxCell id="ZUZhi-c7VlHHgCIczGLj-13" value="" style="rounded=0;whiteSpace=wrap;html=1;fontSize=20;dashed=1;" vertex="1" parent="WIyWlLk6GJQsqaUBKTNV-1">
          <mxGeometry x="50" y="100" width="1170" height="220" as="geometry" />
        </mxCell>
        <mxCell id="ZUZhi-c7VlHHgCIczGLj-0" value="" style="rounded=0;whiteSpace=wrap;html=1;fontSize=16;fillColor=#dae8fc;strokeColor=#6c8ebf;" vertex="1" parent="WIyWlLk6GJQsqaUBKTNV-1">
          <mxGeometry x="115" y="150" width="250" height="120" as="geometry" />
        </mxCell>
        <mxCell id="ZUZhi-c7VlHHgCIczGLj-1" value="编译器" style="rounded=0;whiteSpace=wrap;html=1;fontSize=16;fillColor=#d5e8d4;strokeColor=#82b366;" vertex="1" parent="WIyWlLk6GJQsqaUBKTNV-1">
          <mxGeometry x="140" y="160" width="200" height="50" as="geometry" />
        </mxCell>
        <mxCell id="ZUZhi-c7VlHHgCIczGLj-2" value="Clang-cl" style="rounded=0;whiteSpace=wrap;html=1;fontSize=16;fillColor=#fff2cc;strokeColor=#d6b656;" vertex="1" parent="WIyWlLk6GJQsqaUBKTNV-1">
          <mxGeometry x="140" y="220" width="200" height="40" as="geometry" />
        </mxCell>
        <mxCell id="ZUZhi-c7VlHHgCIczGLj-3" value="" style="rounded=0;whiteSpace=wrap;html=1;fontSize=16;fillColor=#dae8fc;strokeColor=#6c8ebf;" vertex="1" parent="WIyWlLk6GJQsqaUBKTNV-1">
          <mxGeometry x="440" y="150" width="250" height="120" as="geometry" />
        </mxCell>
        <mxCell id="ZUZhi-c7VlHHgCIczGLj-4" value="汇编器" style="rounded=0;whiteSpace=wrap;html=1;fontSize=16;fillColor=#d5e8d4;strokeColor=#82b366;" vertex="1" parent="WIyWlLk6GJQsqaUBKTNV-1">
          <mxGeometry x="465" y="160" width="200" height="50" as="geometry" />
        </mxCell>
        <mxCell id="ZUZhi-c7VlHHgCIczGLj-5" value="llvm-as" style="rounded=0;whiteSpace=wrap;html=1;fontSize=16;fillColor=#fff2cc;strokeColor=#d6b656;" vertex="1" parent="WIyWlLk6GJQsqaUBKTNV-1">
          <mxGeometry x="465" y="220" width="200" height="40" as="geometry" />
        </mxCell>
        <mxCell id="ZUZhi-c7VlHHgCIczGLj-6" value="" style="rounded=0;whiteSpace=wrap;html=1;fontSize=16;fillColor=#dae8fc;strokeColor=#6c8ebf;" vertex="1" parent="WIyWlLk6GJQsqaUBKTNV-1">
          <mxGeometry x="770" y="150" width="250" height="120" as="geometry" />
        </mxCell>
        <mxCell id="ZUZhi-c7VlHHgCIczGLj-7" value="链接器" style="rounded=0;whiteSpace=wrap;html=1;fontSize=16;fillColor=#d5e8d4;strokeColor=#82b366;" vertex="1" parent="WIyWlLk6GJQsqaUBKTNV-1">
          <mxGeometry x="795" y="160" width="200" height="50" as="geometry" />
        </mxCell>
        <mxCell id="ZUZhi-c7VlHHgCIczGLj-8" value="llvm-ld" style="rounded=0;whiteSpace=wrap;html=1;fontSize=16;fillColor=#fff2cc;strokeColor=#d6b656;" vertex="1" parent="WIyWlLk6GJQsqaUBKTNV-1">
          <mxGeometry x="795" y="220" width="200" height="40" as="geometry" />
        </mxCell>
        <mxCell id="ZUZhi-c7VlHHgCIczGLj-9" value="" style="shape=flexArrow;endArrow=classic;html=1;fontSize=16;fillColor=#000000;" edge="1" parent="WIyWlLk6GJQsqaUBKTNV-1">
          <mxGeometry width="50" height="50" relative="1" as="geometry">
            <mxPoint x="380" y="220" as="sourcePoint" />
            <mxPoint x="430" y="220" as="targetPoint" />
          </mxGeometry>
        </mxCell>
        <mxCell id="ZUZhi-c7VlHHgCIczGLj-10" value="" style="shape=flexArrow;endArrow=classic;html=1;fontSize=16;fillColor=#000000;" edge="1" parent="WIyWlLk6GJQsqaUBKTNV-1">
          <mxGeometry width="50" height="50" relative="1" as="geometry">
            <mxPoint x="710" y="219" as="sourcePoint" />
            <mxPoint x="760" y="219" as="targetPoint" />
          </mxGeometry>
        </mxCell>
        <mxCell id="ZUZhi-c7VlHHgCIczGLj-11" value="" style="shape=flexArrow;endArrow=classic;html=1;fontSize=16;fillColor=#000000;" edge="1" parent="WIyWlLk6GJQsqaUBKTNV-1">
          <mxGeometry width="50" height="50" relative="1" as="geometry">
            <mxPoint x="1040" y="219" as="sourcePoint" />
            <mxPoint x="1090" y="219" as="targetPoint" />
          </mxGeometry>
        </mxCell>
        <mxCell id="ZUZhi-c7VlHHgCIczGLj-12" value="exec&lt;br style=&quot;font-size: 20px;&quot;&gt;dylib" style="text;html=1;strokeColor=none;fillColor=none;align=center;verticalAlign=middle;whiteSpace=wrap;rounded=0;fontSize=20;" vertex="1" parent="WIyWlLk6GJQsqaUBKTNV-1">
          <mxGeometry x="1100" y="180" width="80" height="70" as="geometry" />
        </mxCell>
      </root>
    </mxGraphModel>
  </diagram>
</mxfile>
